<svg xmlns="http://www.w3.org/2000/svg" viewBox="0 0 720 480">
<defs><linearGradient id="g" x1="0" x2="1" y1="0" y2="1"><stop offset="0" stop-color="#ffffff"/><stop offset="1" stop-color="#f0f7ff"/></linearGradient></defs>
<rect width="720" height="480" rx="36" fill="url(#g)"/>
<path d="M95 344C150 256 194 199 285 215c66 12 80 66 154 62 74-4 100-60 156-45 39 11 60 48 69 112z" fill="#F2B300" opacity=".15"/>
<path d="M94 352h532" stroke="#062B55" stroke-width="7" stroke-dasharray="18 18" opacity=".23"/>
<g transform="translate(102 226)">
<rect x="0" y="42" width="184" height="86" rx="16" fill="#062B55"/>
<path d="M184 70h68c21 0 39 17 39 39v19H184z" fill="#F2B300"/>
<rect x="34" y="12" width="64" height="50" rx="8" fill="#fff"/><path d="M34 12l32 20 32-20M66 32v30" stroke="#062B55" stroke-width="4" fill="none" opacity=".3"/>
<circle cx="70" cy="136" r="28" fill="#111827"/><circle cx="222" cy="136" r="28" fill="#111827"/>
</g>
<g transform="translate(470 110)">
<circle cx="62" cy="62" r="62" fill="#062B55"/>
<path d="M62 27c-19 0-34 15-34 34 0 27 34 57 34 57s34-30 34-57c0-19-15-34-34-34z" fill="#F2B300"/><circle cx="62" cy="61" r="13" fill="#062B55"/>
</g>
<text x="70" y="70" font-family="Arial, Helvetica, sans-serif" font-size="28" font-weight="900" fill="#062B55">DOSTAVA I PRIJEVOZ</text>
<text x="70" y="108" font-family="Arial, Helvetica, sans-serif" font-size="19" font-weight="700" fill="#6b7280">Split, okolica i cijela Hrvatska</text>
</svg>
