<svg xmlns="http://www.w3.org/2000/svg" viewBox="0 0 720 480">
<defs><linearGradient id="g" x1="0" x2="1" y1="0" y2="1"><stop offset="0" stop-color="#ffffff"/><stop offset="1" stop-color="#eef7ff"/></linearGradient></defs>
<rect width="720" height="480" rx="36" fill="url(#g)"/>
<circle cx="548" cy="128" r="90" fill="#F2B300" opacity=".18"/>
<g transform="translate(90 198)">
<path d="M64 39h278c33 0 59 27 59 59v54H38V65c0-14 12-26 26-26z" fill="#fff" stroke="#062B55" stroke-width="8"/>
<path d="M254 39h85c20 0 39 11 49 29l26 48H254z" fill="#dceaf8" stroke="#062B55" stroke-width="7"/>
<rect x="82" y="67" width="132" height="54" rx="12" fill="#eaf2fb"/>
<path d="M38 133h363v19H38z" fill="#062B55"/>
<circle cx="123" cy="159" r="40" fill="#111827"/><circle cx="123" cy="159" r="20" fill="#fff"/>
<circle cx="327" cy="159" r="40" fill="#111827"/><circle cx="327" cy="159" r="20" fill="#fff"/>
</g>
<g transform="translate(472 185)">
<circle cx="54" cy="54" r="52" fill="#062B55"/>
<path d="M70 43a18 18 0 10-23 24L28 86l12 12 8-8 8 8 10-10-8-8 12-12a18 18 0 000-25z" fill="#F2B300"/>
<circle cx="57" cy="49" r="8" fill="#062B55"/>
</g>
<text x="70" y="70" font-family="Arial, Helvetica, sans-serif" font-size="28" font-weight="900" fill="#062B55">NAJAM VOZILA</text>
<text x="70" y="108" font-family="Arial, Helvetica, sans-serif" font-size="19" font-weight="700" fill="#6b7280">Kombi i kedi vozila po dogovoru</text>
</svg>
