<svg xmlns="http://www.w3.org/2000/svg" viewBox="0 0 720 480">
<defs><linearGradient id="g" x1="0" x2="1" y1="0" y2="1"><stop offset="0" stop-color="#fff"/><stop offset="1" stop-color="#edf5ff"/></linearGradient></defs>
<rect width="720" height="480" rx="36" fill="url(#g)"/>
<path d="M0 355c70-61 141-97 229-68 68 23 87 82 178 79 118-4 134-92 230-83 44 4 69 27 83 44v153H0z" fill="#F2B300" opacity=".16"/>
<g transform="translate(76 170)">
<rect x="0" y="96" width="158" height="88" rx="14" fill="#062B55" opacity=".95"/>
<rect x="14" y="20" width="130" height="88" rx="14" fill="#F2B300"/>
<path d="M14 20l65 39 65-39M79 59v49" fill="none" stroke="#7a5410" stroke-width="8" opacity=".45"/>
<circle cx="42" cy="188" r="25" fill="#111827"/><circle cx="122" cy="188" r="25" fill="#111827"/>
<path d="M158 126h62c18 0 33 15 33 33v25h-95z" fill="#062B55"/>
<circle cx="219" cy="188" r="25" fill="#111827"/>
</g>
<g transform="translate(376 104)">
<rect x="0" y="120" width="94" height="118" rx="11" fill="#F2B300"/>
<rect x="101" y="72" width="132" height="166" rx="12" fill="#fff" stroke="#062B55" stroke-width="7"/>
<rect x="118" y="96" width="40" height="40" rx="5" fill="#e7eef7"/><rect x="175" y="96" width="40" height="40" rx="5" fill="#e7eef7"/>
<rect x="118" y="154" width="97" height="16" rx="8" fill="#F2B300"/>
<rect x="118" y="184" width="74" height="16" rx="8" fill="#F2B300" opacity=".72"/>
<path d="M41 120l47-28 47 28M88 92v146" fill="none" stroke="#062B55" stroke-width="6" opacity=".22"/>
</g>
<text x="70" y="70" font-family="Arial, Helvetica, sans-serif" font-size="28" font-weight="900" fill="#062B55">SELIDBE I UTOVAR</text>
</svg>
