<svg xmlns="http://www.w3.org/2000/svg" viewBox="0 0 840 500" role="img" aria-labelledby="title desc">
<title id="title">Ilustracija bijelog kombija za prijevoz robe</title>
<desc id="desc">Bijeli kombi s paketima u tamno plavom i žutom transportnom okruženju</desc>
<defs>
<linearGradient id="bg" x1="0" x2="1" y1="0" y2="1"><stop offset="0" stop-color="#fff"/><stop offset="1" stop-color="#eff6ff"/></linearGradient>
<filter id="shadow" x="-20%" y="-20%" width="140%" height="140%"><feDropShadow dx="0" dy="18" stdDeviation="18" flood-color="#062B55" flood-opacity=".18"/></filter>
</defs>
<rect width="840" height="500" rx="42" fill="url(#bg)"/>
<path d="M88 372C184 302 233 148 398 156c114 5 138 83 226 75 66-7 104-62 164-33 62 29 42 130 1 174H88z" fill="#F8C43A" opacity=".15"/>
<path d="M70 386h700" stroke="#062B55" stroke-width="4" opacity=".12"/>
<g filter="url(#shadow)">
<path d="M183 248h386c42 0 74 34 74 76v49H145v-88c0-20 17-37 38-37z" fill="#fff"/>
<path d="M407 248h136c25 0 48 13 61 35l37 64H407z" fill="#f7fbff"/>
<path d="M430 270h96c20 0 37 11 47 28l16 28H430z" fill="#dceaf8"/>
<rect x="178" y="275" width="192" height="58" rx="16" fill="#eaf2fb"/>
<path d="M145 347h499v26H145z" fill="#062B55"/>
<path d="M156 365h68v15h-68zM558 365h64v15h-64z" fill="#1f2937"/>
<circle cx="253" cy="379" r="48" fill="#111827"/>
<circle cx="253" cy="379" r="25" fill="#fff"/>
<circle cx="253" cy="379" r="11" fill="#9ca3af"/>
<circle cx="556" cy="379" r="48" fill="#111827"/>
<circle cx="556" cy="379" r="25" fill="#fff"/>
<circle cx="556" cy="379" r="11" fill="#9ca3af"/>
<path d="M638 345h32c9 0 16 7 16 16v12h-48z" fill="#F2B300"/>
</g>
<g transform="translate(110 308)">
<rect x="0" y="46" width="58" height="58" rx="6" fill="#E7A91B"/><path d="M0 46l29 17 29-17M29 63v41" fill="none" stroke="#7a5410" stroke-width="4" opacity=".5"/>
<rect x="64" y="21" width="58" height="83" rx="6" fill="#F2B300"/><path d="M64 21l29 17 29-17M93 38v66" fill="none" stroke="#7a5410" stroke-width="4" opacity=".45"/>
<rect x="129" y="52" width="58" height="52" rx="6" fill="#D99213"/><path d="M129 52l29 16 29-16M158 68v36" fill="none" stroke="#7a5410" stroke-width="4" opacity=".45"/>
</g>
<g fill="none" stroke="#062B55" stroke-width="5" stroke-linecap="round" opacity=".22">
<path d="M650 111c48 13 84 43 104 88"/>
<path d="M721 109l33 90-89-32"/>
</g>
<g transform="translate(690 80)">
<circle cx="32" cy="32" r="32" fill="#062B55"/><path d="M32 14c-10 0-18 8-18 18 0 14 18 28 18 28s18-14 18-28c0-10-8-18-18-18z" fill="#F2B300"/><circle cx="32" cy="32" r="7" fill="#062B55"/>
</g>
</svg>
